<mxfile host="app.diagrams.net" modified="2024-05-20T09:31:15.041Z" agent="Mozilla/5.0 (Windows NT 10.0; Win64; x64) AppleWebKit/537.36 (KHTML, like Gecko) Chrome/124.0.0.0 Safari/537.36" etag="Lox3DZhkaCDFgHsVr81p" version="24.4.3" type="github">
  <diagram name="第 1 页" id="hwJlUzg2raEbkkXDkloc">
    <mxGraphModel dx="934" dy="605" grid="1" gridSize="10" guides="1" tooltips="1" connect="1" arrows="1" fold="1" page="1" pageScale="1" pageWidth="827" pageHeight="1169" math="0" shadow="0">
      <root>
        <mxCell id="0" />
        <mxCell id="1" parent="0" />
        <mxCell id="pmEeMmE-P4aUWf_jCrCw-1" value="XEdgelinkManager.UI" style="whiteSpace=wrap;html=1;" vertex="1" parent="1">
          <mxGeometry x="60" y="58" width="160" height="100" as="geometry" />
        </mxCell>
        <mxCell id="pmEeMmE-P4aUWf_jCrCw-7" style="edgeStyle=orthogonalEdgeStyle;rounded=0;orthogonalLoop=1;jettySize=auto;html=1;exitX=1;exitY=0.25;exitDx=0;exitDy=0;entryX=0;entryY=0.25;entryDx=0;entryDy=0;" edge="1" parent="1" source="pmEeMmE-P4aUWf_jCrCw-2" target="pmEeMmE-P4aUWf_jCrCw-3">
          <mxGeometry relative="1" as="geometry" />
        </mxCell>
        <mxCell id="pmEeMmE-P4aUWf_jCrCw-25" style="edgeStyle=orthogonalEdgeStyle;rounded=0;orthogonalLoop=1;jettySize=auto;html=1;exitX=0.25;exitY=1;exitDx=0;exitDy=0;entryX=1;entryY=0.5;entryDx=0;entryDy=0;" edge="1" parent="1" source="pmEeMmE-P4aUWf_jCrCw-2" target="pmEeMmE-P4aUWf_jCrCw-15">
          <mxGeometry relative="1" as="geometry" />
        </mxCell>
        <mxCell id="pmEeMmE-P4aUWf_jCrCw-26" style="edgeStyle=orthogonalEdgeStyle;rounded=0;orthogonalLoop=1;jettySize=auto;html=1;exitX=0.5;exitY=1;exitDx=0;exitDy=0;entryX=1;entryY=0.75;entryDx=0;entryDy=0;" edge="1" parent="1" source="pmEeMmE-P4aUWf_jCrCw-2" target="pmEeMmE-P4aUWf_jCrCw-16">
          <mxGeometry relative="1" as="geometry" />
        </mxCell>
        <mxCell id="pmEeMmE-P4aUWf_jCrCw-2" value="XEdgelinkManager.service" style="whiteSpace=wrap;html=1;" vertex="1" parent="1">
          <mxGeometry x="333.5" y="58" width="160" height="100" as="geometry" />
        </mxCell>
        <mxCell id="pmEeMmE-P4aUWf_jCrCw-13" value="" style="edgeStyle=orthogonalEdgeStyle;rounded=0;orthogonalLoop=1;jettySize=auto;html=1;" edge="1" parent="1" source="pmEeMmE-P4aUWf_jCrCw-3" target="pmEeMmE-P4aUWf_jCrCw-12">
          <mxGeometry relative="1" as="geometry">
            <Array as="points">
              <mxPoint x="710" y="298" />
            </Array>
          </mxGeometry>
        </mxCell>
        <mxCell id="pmEeMmE-P4aUWf_jCrCw-3" value="X-Edgelink" style="whiteSpace=wrap;html=1;" vertex="1" parent="1">
          <mxGeometry x="650" y="58" width="160" height="100" as="geometry" />
        </mxCell>
        <mxCell id="pmEeMmE-P4aUWf_jCrCw-4" value="" style="endArrow=classic;html=1;rounded=0;exitX=1;exitY=0.25;exitDx=0;exitDy=0;entryX=0;entryY=0.25;entryDx=0;entryDy=0;" edge="1" parent="1" source="pmEeMmE-P4aUWf_jCrCw-1" target="pmEeMmE-P4aUWf_jCrCw-2">
          <mxGeometry width="50" height="50" relative="1" as="geometry">
            <mxPoint x="380" y="290" as="sourcePoint" />
            <mxPoint x="430" y="240" as="targetPoint" />
          </mxGeometry>
        </mxCell>
        <mxCell id="pmEeMmE-P4aUWf_jCrCw-5" value="2. 请求启动app" style="text;html=1;align=center;verticalAlign=middle;resizable=0;points=[];autosize=1;strokeColor=none;fillColor=none;" vertex="1" parent="1">
          <mxGeometry x="235" y="40" width="100" height="30" as="geometry" />
        </mxCell>
        <mxCell id="pmEeMmE-P4aUWf_jCrCw-8" value="3. 通知X-Edgelink断开连接&lt;div&gt;5. 通知&lt;span style=&quot;background-color: initial;&quot;&gt;X-Edgelink重新连接&lt;/span&gt;&lt;/div&gt;" style="text;html=1;align=left;verticalAlign=middle;resizable=0;points=[];autosize=1;strokeColor=none;fillColor=none;" vertex="1" parent="1">
          <mxGeometry x="505" y="20" width="170" height="40" as="geometry" />
        </mxCell>
        <mxCell id="pmEeMmE-P4aUWf_jCrCw-12" value="CloudXR Server" style="whiteSpace=wrap;html=1;aspect=fixed;" vertex="1" parent="1">
          <mxGeometry x="550" y="268" width="80" height="80" as="geometry" />
        </mxCell>
        <mxCell id="pmEeMmE-P4aUWf_jCrCw-22" style="edgeStyle=orthogonalEdgeStyle;rounded=0;orthogonalLoop=1;jettySize=auto;html=1;exitX=0;exitY=0.5;exitDx=0;exitDy=0;entryX=0;entryY=0.5;entryDx=0;entryDy=0;" edge="1" parent="1" source="pmEeMmE-P4aUWf_jCrCw-15" target="pmEeMmE-P4aUWf_jCrCw-1">
          <mxGeometry relative="1" as="geometry" />
        </mxCell>
        <mxCell id="pmEeMmE-P4aUWf_jCrCw-15" value="APP_1" style="rounded=0;whiteSpace=wrap;html=1;" vertex="1" parent="1">
          <mxGeometry x="60" y="280" width="120" height="60" as="geometry" />
        </mxCell>
        <mxCell id="pmEeMmE-P4aUWf_jCrCw-23" style="edgeStyle=orthogonalEdgeStyle;rounded=0;orthogonalLoop=1;jettySize=auto;html=1;exitX=0;exitY=0.5;exitDx=0;exitDy=0;entryX=0;entryY=0.25;entryDx=0;entryDy=0;" edge="1" parent="1" source="pmEeMmE-P4aUWf_jCrCw-16" target="pmEeMmE-P4aUWf_jCrCw-1">
          <mxGeometry relative="1" as="geometry" />
        </mxCell>
        <mxCell id="pmEeMmE-P4aUWf_jCrCw-16" value="APP_2" style="rounded=0;whiteSpace=wrap;html=1;" vertex="1" parent="1">
          <mxGeometry x="60" y="370" width="120" height="60" as="geometry" />
        </mxCell>
        <mxCell id="pmEeMmE-P4aUWf_jCrCw-24" value="1. 添加APP 启动路径" style="text;html=1;align=center;verticalAlign=middle;resizable=0;points=[];autosize=1;strokeColor=none;fillColor=none;" vertex="1" parent="1">
          <mxGeometry x="30" y="208" width="140" height="30" as="geometry" />
        </mxCell>
        <mxCell id="pmEeMmE-P4aUWf_jCrCw-27" value="&lt;span style=&quot;text-align: left;&quot;&gt;4. 启动所选择的应用&lt;/span&gt;" style="text;html=1;align=center;verticalAlign=middle;resizable=0;points=[];autosize=1;strokeColor=none;fillColor=none;" vertex="1" parent="1">
          <mxGeometry x="250" y="208" width="130" height="30" as="geometry" />
        </mxCell>
        <mxCell id="pmEeMmE-P4aUWf_jCrCw-28" value="连接/断开连接" style="text;html=1;align=center;verticalAlign=middle;resizable=0;points=[];autosize=1;strokeColor=none;fillColor=none;" vertex="1" parent="1">
          <mxGeometry x="610" y="208" width="100" height="30" as="geometry" />
        </mxCell>
      </root>
    </mxGraphModel>
  </diagram>
</mxfile>
